<svg viewBox="0 0 40 40" fill="black" xmlns="http://www.w3.org/2000/svg">
<path fill-rule="evenodd" clip-rule="evenodd" d="M6 13.6566C6 17.3678 7.47536 20.7337 9.85714 23.198V40L19.5 35.3522L29.1429 40V23.2C31.615 20.6532 33.0001 17.2262 33 13.6566C33 6.12683 26.9443 0 19.5 0C12.0557 0 6 6.12683 6 13.6566ZM19.499 31.2181C19.7986 31.2181 20.0941 31.2887 20.3621 31.4244L25.2857 33.9141V25.9805C23.5288 26.8293 21.5713 27.3171 19.5 27.3171C17.4287 27.3171 15.4712 26.8273 13.7143 25.9805V33.9161L18.636 31.4244C18.9039 31.2887 19.1994 31.2181 19.499 31.2181ZM29.1429 13.6566C29.1429 8.27707 24.8151 3.90244 19.5 3.90244C16.9437 3.90502 14.4927 4.93345 12.685 6.7621C10.8772 8.59074 9.86021 11.0702 9.85714 13.6566C9.85714 19.038 14.1829 23.4146 19.5 23.4146C22.0568 23.4115 24.508 22.3824 26.3158 20.553C28.1236 18.7237 29.1403 16.2435 29.1429 13.6566Z"/>
</svg>
