<svg viewBox="0 0 10 10" fill="black" xmlns="http://www.w3.org/2000/svg">
<path fill-rule="evenodd" clip-rule="evenodd" d="M5 1.3335C3.66531 1.3335 2.58333 2.41547 2.58333 3.75016C2.58333 5.08485 3.66531 6.16683 5 6.16683C6.33469 6.16683 7.41667 5.08485 7.41667 3.75016C7.41667 2.41547 6.33469 1.3335 5 1.3335ZM1.58333 3.75016C1.58333 1.86319 3.11303 0.333496 5 0.333496C6.88697 0.333496 8.41667 1.86319 8.41667 3.75016C8.41667 5.63714 6.88697 7.16683 5 7.16683C3.11303 7.16683 1.58333 5.63714 1.58333 3.75016Z"/>
<path fill-rule="evenodd" clip-rule="evenodd" d="M2.91666 5.3335C3.19281 5.3335 3.41666 5.55735 3.41666 5.8335V8.28354L4.52871 7.61676C4.67107 7.53145 4.83404 7.48633 5 7.48633C5.16596 7.48633 5.32881 7.53138 5.47116 7.61668L6.58333 8.28354V5.8335C6.58333 5.55735 6.80719 5.3335 7.08333 5.3335C7.35947 5.3335 7.58333 5.55735 7.58333 5.8335V8.431C7.5832 8.59311 7.54009 8.75268 7.45838 8.89269C7.37667 9.0327 7.2593 9.14854 7.11822 9.2284C6.97714 9.30825 6.81741 9.34927 6.65532 9.34726C6.49322 9.34526 6.33455 9.3003 6.1955 9.21697L5 8.50016L3.80462 9.2169C3.66556 9.30023 3.50678 9.34526 3.34468 9.34726C3.18258 9.34927 3.02285 9.30825 2.88177 9.2284C2.7407 9.14854 2.62332 9.0327 2.54162 8.89269C2.45991 8.75268 2.41679 8.5935 2.41666 8.43139L2.41666 5.8335C2.41666 5.55735 2.64052 5.3335 2.91666 5.3335Z"/>
</svg>
