<svg width="10" height="11" viewBox="0 0 10 11" fill="none" xmlns="http://www.w3.org/2000/svg">
<path d="M6.29083 5.76433L5.41666 5.25975V3.41683C5.41666 3.30632 5.37276 3.20034 5.29462 3.1222C5.21648 3.04406 5.1105 3.00016 5 3.00016C4.88949 3.00016 4.78351 3.04406 4.70537 3.1222C4.62723 3.20034 4.58333 3.30632 4.58333 3.41683V5.50016C4.58333 5.5733 4.60259 5.64515 4.63916 5.70849C4.67573 5.77183 4.72832 5.82443 4.79166 5.861L5.87416 6.486C5.92157 6.51379 5.974 6.53193 6.02844 6.53937C6.08289 6.54681 6.13827 6.54342 6.19139 6.52937C6.24452 6.51532 6.29434 6.49091 6.33799 6.45753C6.38164 6.42415 6.41826 6.38247 6.44573 6.33488C6.47321 6.28729 6.491 6.23474 6.49808 6.18025C6.50516 6.12576 6.5014 6.0704 6.487 6.01737C6.4726 5.96434 6.44786 5.91468 6.41419 5.87126C6.38052 5.82783 6.3386 5.79149 6.29083 5.76433ZM5 1.3335C4.17591 1.3335 3.37033 1.57787 2.68512 2.03571C1.99992 2.49355 1.46586 3.14429 1.1505 3.90565C0.835134 4.66701 0.75262 5.50478 0.913391 6.31304C1.07416 7.12129 1.471 7.86372 2.05372 8.44644C2.63644 9.02916 3.37887 9.426 4.18712 9.58677C4.99537 9.74754 5.83315 9.66503 6.59451 9.34966C7.35587 9.0343 8.00661 8.50024 8.46445 7.81504C8.92229 7.12983 9.16666 6.32425 9.16666 5.50016C9.16545 4.39547 8.72607 3.33636 7.94493 2.55522C7.1638 1.77409 6.10469 1.33471 5 1.3335ZM5 8.8335C4.34073 8.8335 3.69626 8.638 3.1481 8.27173C2.59993 7.90546 2.17269 7.38486 1.9204 6.77577C1.66811 6.16669 1.6021 5.49646 1.73071 4.84986C1.85933 4.20326 2.1768 3.60931 2.64297 3.14314C3.10915 2.67696 3.70309 2.3595 4.3497 2.23088C4.9963 2.10226 5.66652 2.16827 6.27561 2.42056C6.8847 2.67286 7.40529 3.1001 7.77156 3.64826C8.13783 4.19643 8.33333 4.84089 8.33333 5.50016C8.33223 6.38388 7.98068 7.23108 7.3558 7.85597C6.73092 8.48085 5.88371 8.83239 5 8.8335Z" fill="#7173A7"/>
</svg>
