<svg viewBox="0 0 40 40" fill="black" xmlns="http://www.w3.org/2000/svg">
<path fill-rule="evenodd" clip-rule="evenodd" d="M22 9.5L22 19.1715L28.5 25.6716L25.6716 28.5L18.5858 21.4142C18.2107 21.0391 18 20.5304 18 20L18 9.5H22ZM34.7821 26.1229C35.5861 24.1817 36 22.1012 36 20C36 15.7565 34.3143 11.6869 31.3137 8.68629C28.3131 5.68571 24.2435 4 20 4C15.7565 4 11.6869 5.68571 8.68629 8.68629C5.68571 11.6869 4 15.7565 4 20C4 22.1012 4.41385 24.1817 5.21793 26.1229C6.022 28.0641 7.20055 29.828 8.68629 31.3137C10.172 32.7994 11.9359 33.978 13.8771 34.7821C15.8183 35.5861 17.8988 36 20 36C22.1012 36 24.1817 35.5861 26.1229 34.7821C28.0641 33.978 29.828 32.7994 31.3137 31.3137C32.7994 29.828 33.978 28.0641 34.7821 26.1229ZM38.4776 27.6537C39.4827 25.2272 40 22.6264 40 20C40 14.6957 37.8929 9.60859 34.1421 5.85786C30.3914 2.10714 25.3043 0 20 0C14.6957 0 9.60859 2.10714 5.85786 5.85786C2.10714 9.60859 0 14.6957 0 20C0 22.6264 0.517315 25.2272 1.52241 27.6537C2.5275 30.0802 4.00069 32.285 5.85786 34.1421C7.71504 35.9993 9.91982 37.4725 12.3463 38.4776C14.7728 39.4827 17.3736 40 20 40C22.6264 40 25.2272 39.4827 27.6537 38.4776C30.0802 37.4725 32.285 35.9993 34.1421 34.1421C35.9993 32.285 37.4725 30.0802 38.4776 27.6537Z"/>
</svg>
