<svg viewBox="0 0 40 40" fill="black" xmlns="http://www.w3.org/2000/svg">
<path d="M31.0429 5.71592C30.3077 5.71488 29.5817 5.88024 28.9184 6.19983V5.00167C28.9188 3.81003 28.4973 2.65741 27.7297 1.75152C26.9621 0.845626 25.899 0.246034 24.7318 0.0607912C23.5647 -0.124452 22.3704 0.116836 21.3641 0.741174C20.3577 1.36551 19.6056 2.33184 19.2431 3.46603C18.4882 3.05305 17.6399 2.84495 16.7813 2.86214C15.9227 2.87932 15.0832 3.1212 14.3451 3.56406C13.6071 4.00692 12.9958 4.63558 12.5711 5.38843C12.1464 6.14128 11.9229 6.9925 11.9225 7.85868V19.2867L11.2462 18.1921C10.5893 17.0488 9.51038 16.2142 8.2452 15.8708C6.98003 15.5275 5.63154 15.7032 4.49448 16.3597C3.35742 17.0162 2.52427 18.1 2.17715 19.3742C1.83004 20.6484 1.99718 22.0094 2.64204 23.1597C5.47469 29.1898 7.76382 33.4664 10.3823 36.1395C13.0272 38.8465 16.0298 40 20.4204 40C24.551 39.9953 28.511 38.3382 31.4317 35.3924C34.3524 32.4466 35.9953 28.4525 36 24.2865V10.7157C36 9.38966 35.4777 8.11796 34.5481 7.18032C33.6184 6.24268 32.3576 5.71592 31.0429 5.71592ZM33.1674 24.2865C33.1636 27.6951 31.8194 30.963 29.4297 33.3732C27.04 35.7835 23.8 37.1392 20.4204 37.143C16.8124 37.143 14.4878 36.2716 12.3952 34.1342C10.053 31.7397 7.8966 27.6792 5.17726 21.8902C5.16144 21.8547 5.14371 21.8201 5.12415 21.7866C4.84243 21.2943 4.76613 20.7093 4.91205 20.1603C5.05798 19.6113 5.41416 19.1432 5.90224 18.859C6.39033 18.5749 6.97034 18.4979 7.51468 18.6451C8.05902 18.7923 8.5231 19.1515 8.80482 19.6438C8.81216 19.6581 8.82044 19.6718 8.82961 19.6849L12.135 25.0418C12.2973 25.306 12.5407 25.5097 12.8282 25.6217C13.1158 25.7338 13.4317 25.7482 13.728 25.6628C14.0244 25.5774 14.2851 25.3967 14.4704 25.1483C14.6558 24.9 14.7558 24.5974 14.7552 24.2865V7.85868C14.7552 7.29038 14.979 6.74536 15.3774 6.34352C15.7758 5.94168 16.3162 5.71592 16.8796 5.71592C17.4431 5.71592 17.9835 5.94168 18.3819 6.34352C18.7803 6.74536 19.0041 7.29038 19.0041 7.85868V18.5725C19.0041 18.9513 19.1533 19.3147 19.419 19.5826C19.6846 19.8505 20.0448 20.001 20.4204 20.001C20.7961 20.001 21.1563 19.8505 21.4219 19.5826C21.6875 19.3147 21.8368 18.9513 21.8368 18.5725V5.00167C21.8368 4.43338 22.0606 3.88836 22.459 3.48651C22.8574 3.08467 23.3978 2.85891 23.9613 2.85891C24.5247 2.85891 25.0651 3.08467 25.4635 3.48651C25.8619 3.88836 26.0857 4.43338 26.0857 5.00167V18.5725C26.0857 18.9513 26.235 19.3147 26.5006 19.5826C26.7662 19.8505 27.1264 20.001 27.5021 20.001C27.8777 20.001 28.2379 19.8505 28.5036 19.5826C28.7692 19.3147 28.9184 18.9513 28.9184 18.5725V10.7157C28.9184 10.1474 29.1422 9.60237 29.5406 9.20053C29.939 8.79868 30.4794 8.57293 31.0429 8.57293C31.6063 8.57293 32.1467 8.79868 32.5451 9.20053C32.9435 9.60237 33.1674 10.1474 33.1674 10.7157V24.2865Z"/>
<path d="M33.1674 24.2865C33.1636 27.6951 31.8194 30.963 29.4297 33.3732C27.04 35.7835 23.8 37.1392 20.4204 37.143C16.8124 37.143 14.4878 36.2716 12.3952 34.1342C10.053 31.7397 7.8966 27.6792 5.17726 21.8902C5.16144 21.8547 5.14371 21.8201 5.12415 21.7866C4.84243 21.2943 4.76613 20.7093 4.91205 20.1603C5.05798 19.6113 5.41416 19.1432 5.90224 18.859C6.39033 18.5749 6.97034 18.4979 7.51468 18.6451C8.05902 18.7923 8.5231 19.1515 8.80482 19.6438C8.81216 19.6581 8.82044 19.6718 8.82961 19.6849L12.135 25.0418C12.2973 25.306 12.5407 25.5097 12.8282 25.6217C13.1158 25.7338 13.4317 25.7482 13.728 25.6628C14.0244 25.5774 14.2851 25.3967 14.4704 25.1483C14.6558 24.9 14.7558 24.5974 14.7552 24.2865V7.85868C14.7552 7.29038 14.979 6.74536 15.3774 6.34352C15.7758 5.94168 16.3162 5.71592 16.8796 5.71592C17.4431 5.71592 17.9835 5.94168 18.3819 6.34352C18.7803 6.74536 19.0041 7.29038 19.0041 7.85868V18.5725C19.0041 18.9513 19.1533 19.3147 19.419 19.5826C19.6846 19.8505 20.0448 20.001 20.4204 20.001C20.7961 20.001 21.1563 19.8505 21.4219 19.5826C21.6875 19.3147 21.8368 18.9513 21.8368 18.5725V5.00167C21.8368 4.43338 22.0606 3.88836 22.459 3.48651C22.8574 3.08467 23.3978 2.85891 23.9613 2.85891C24.5247 2.85891 25.0651 3.08467 25.4635 3.48651C25.8619 3.88836 26.0857 4.43338 26.0857 5.00167V18.5725C26.0857 18.9513 26.235 19.3147 26.5006 19.5826C26.7662 19.8505 27.1264 20.001 27.5021 20.001C27.8777 20.001 28.2379 19.8505 28.5036 19.5826C28.7692 19.3147 28.9184 18.9513 28.9184 18.5725V10.7157C28.9184 10.1474 29.1422 9.60237 29.5406 9.20053C29.939 8.79868 30.4794 8.57293 31.0429 8.57293C31.6063 8.57293 32.1467 8.79868 32.5451 9.20053C32.9435 9.60237 33.1674 10.1474 33.1674 10.7157V24.2865Z"/>
</svg>