<svg viewBox="0 0 40 40" fill="black" xmlns="http://www.w3.org/2000/svg">

<path fill-rule="evenodd" clip-rule="evenodd" d="M18.7878 0.5021C19.4573 -0.167367 20.5427 -0.167367 21.2121 0.5021L39.4978 18.7877C39.9881 19.278 40.1347 20.0154 39.8694 20.6559C39.604 21.2965 38.979 21.7142 38.2856 21.7142H35.9364V34.2221C35.9364 35.7544 35.3277 37.224 34.2441 38.3076C33.1606 39.3911 31.691 39.9998 30.1586 39.9998H26.0952C25.1484 39.9998 24.3809 39.2323 24.3809 38.2855C24.3809 37.3388 25.1484 36.5713 26.0952 36.5713H30.1586C30.7817 36.5713 31.3792 36.3238 31.8198 35.8832C32.2603 35.4426 32.5078 34.8451 32.5078 34.2221V19.9999C32.5078 19.0778 33.2359 18.3257 34.1485 18.2872L20 4.13863L5.85141 18.2872C6.76403 18.3257 7.49208 19.0778 7.49208 19.9999V34.2221C7.49208 34.8451 7.73958 35.4426 8.18014 35.8832C8.6207 36.3238 9.21823 36.5713 9.84128 36.5713H13.9047C14.8515 36.5713 15.619 37.3388 15.619 38.2855C15.619 39.2323 14.8515 39.9998 13.9047 39.9998H9.84128C8.30892 39.9998 6.83933 39.3911 5.75579 38.3076C4.67225 37.224 4.06352 35.7544 4.06352 34.2221V21.7142H1.71433C1.02097 21.7142 0.395879 21.2965 0.130542 20.6559C-0.134796 20.0154 0.0118705 19.278 0.502151 18.7877L18.7878 0.5021Z"/>
<path fill-rule="evenodd" clip-rule="evenodd" d="M17.9683 23.7462C17.3452 23.7462 16.7477 23.9937 16.3071 24.4342C15.8666 24.8748 15.6191 25.4723 15.6191 26.0954V38.2858C15.6191 39.2326 14.8516 40.0001 13.9048 40.0001C12.958 40.0001 12.1905 39.2326 12.1905 38.2858V26.0954C12.1905 24.563 12.7992 23.0934 13.8828 22.0099C14.9663 20.9264 16.4359 20.3176 17.9683 20.3176H22.0317C23.5641 20.3176 25.0337 20.9264 26.1172 22.0099C27.2008 23.0934 27.8095 24.563 27.8095 26.0954V38.2858C27.8095 39.2326 27.042 40.0001 26.0952 40.0001C25.1484 40.0001 24.3809 39.2326 24.3809 38.2858V26.0954C24.3809 25.4723 24.1334 24.8748 23.6929 24.4342C23.2523 23.9937 22.6548 23.7462 22.0317 23.7462H17.9683Z"/>
</svg>
