<svg viewBox="0 0 40 40" fill="black" xmlns="http://www.w3.org/2000/svg">
<path d="M20 4.00002L14.8 9.20001L18 12.4L23.2 7.20002C25.84 4.56002 30.16 4.56002 32.8 7.20002C35.44 9.84002 35.44 14.16 32.8 16.8L27.6 22L30.8 25.2L36 20C40.416 15.584 40.416 8.41602 36 4.00002C31.584 -0.415977 24.416 -0.415976 20 4.00002ZM22.6 27L16.8 32.8C14.16 35.44 9.84 35.44 7.20001 32.8C4.56001 30.16 4.56001 25.84 7.20001 23.2L13 17.4L9.8 14.2L4.00001 20C-0.415987 24.416 -0.415987 31.584 4.00001 36C8.41601 40.416 15.584 40.416 20 36L25.8 30.2L22.6 27ZM12 24.8L24.8 12L28 15.2L15.2 28L12 24.8ZM20 4.00002L14.8 9.20001L18 12.4L23.2 7.20002C25.84 4.56002 30.16 4.56002 32.8 7.20002C35.44 9.84002 35.44 14.16 32.8 16.8L27.6 22L30.8 25.2L36 20C40.416 15.584 40.416 8.41602 36 4.00002C31.584 -0.415977 24.416 -0.415976 20 4.00002ZM22.6 27L16.8 32.8C14.16 35.44 9.84 35.44 7.20001 32.8C4.56001 30.16 4.56001 25.84 7.20001 23.2L13 17.4L9.8 14.2L4.00001 20C-0.415987 24.416 -0.415987 31.584 4.00001 36C8.41601 40.416 15.584 40.416 20 36L25.8 30.2L22.6 27ZM12 24.8L24.8 12L28 15.2L15.2 28L12 24.8Z"/>
</svg>
