<svg width="10" height="11" viewBox="0 0 10 11" fill="none" xmlns="http://www.w3.org/2000/svg">
<g clip-path="url(#clip0_601_1002)">
<path d="M2.98533 7.16319C3.08177 7.25963 3.21072 7.31566 3.3438 7.31896C3.47689 7.32225 3.60322 7.27254 3.695 7.18076L5.77131 5.10446C5.86309 5.01268 5.91279 4.88635 5.9095 4.75326C5.9062 4.62017 5.85017 4.49122 5.75374 4.39479C5.6573 4.29835 5.52835 4.24232 5.39526 4.23902C5.26217 4.23573 5.13584 4.28544 5.04406 4.37722L2.96776 6.45352C2.87598 6.5453 2.82627 6.67163 2.82957 6.80472C2.83286 6.93781 2.88889 7.06675 2.98533 7.16319ZM4.7683 7.56196L3.73015 8.60011C3.45481 8.87545 3.07582 9.02457 2.67655 9.01469C2.27729 9.0048 1.89044 8.83671 1.60113 8.5474C1.31181 8.25808 1.14372 7.87124 1.13383 7.47197C1.12395 7.0727 1.27308 6.69371 1.54841 6.41838L2.58656 5.38022C2.67834 5.28845 2.72805 5.16212 2.72476 5.02903C2.72146 4.89594 2.66543 4.76699 2.56899 4.67055C2.47255 4.57411 2.3436 4.51808 2.21052 4.51479C2.07743 4.51149 1.9511 4.5612 1.85932 4.65298L0.821166 5.69113C0.362274 6.15002 0.113728 6.78167 0.130204 7.44712C0.146681 8.11257 0.426831 8.75731 0.909025 9.2395C1.39122 9.72169 2.03596 10.0018 2.7014 10.0183C3.36685 10.0348 3.9985 9.78625 4.45739 9.32736L5.49554 8.2892C5.58732 8.19743 5.63703 8.0711 5.63374 7.93801C5.63044 7.80492 5.57441 7.67597 5.47797 7.57953C5.38153 7.48309 5.25259 7.42706 5.1195 7.42377C4.98641 7.42047 4.86008 7.47018 4.7683 7.56196ZM4.28167 2.23062L3.24352 3.26878C3.15174 3.36055 3.10203 3.48688 3.10533 3.61997C3.10862 3.75306 3.16465 3.88201 3.26109 3.97845C3.35753 4.07489 3.48648 4.13092 3.61957 4.13421C3.75266 4.13751 3.87899 4.0878 3.97077 3.99602L5.00892 2.95787C5.28425 2.68253 5.66324 2.5334 6.06251 2.54329C6.46178 2.55318 6.84862 2.72127 7.13794 3.01058C7.42725 3.2999 7.59535 3.68674 7.60523 4.08601C7.61512 4.48528 7.46599 4.86427 7.19065 5.1396L6.1525 6.17776C6.06072 6.26953 6.01101 6.39586 6.01431 6.52895C6.0176 6.66204 6.07363 6.79099 6.17007 6.88743C6.26651 6.98387 6.39546 7.0399 6.52855 7.04319C6.66164 7.04649 6.78797 6.99678 6.87975 6.905L7.9179 5.86685C8.37679 5.40796 8.62534 4.77631 8.60886 4.11086C8.59238 3.44541 8.31223 2.80067 7.83004 2.31848C7.34785 1.83629 6.70311 1.55614 6.03766 1.53966C5.37221 1.52318 4.74057 1.77173 4.28167 2.23062Z" fill="#000AFF"/>
</g>
<defs>
<clipPath id="clip0_601_1002">
<rect width="10" height="10" fill="white" transform="translate(0 0.5)"/>
</clipPath>
</defs>
</svg>
