<svg viewBox="0 0 10 11" fill="black" xmlns="http://www.w3.org/2000/svg">
<path d="M7.5 2.36659C6.83696 1.70355 5.93768 1.33105 5 1.33105C4.06232 1.33105 3.16304 1.70355 2.5 2.36659C1.83696 3.02963 1.46447 3.92891 1.46447 4.86659C1.46447 5.80427 1.83696 6.70355 2.5 7.36659L4.69583 9.56659C4.73457 9.60564 4.78065 9.63664 4.83143 9.65779C4.8822 9.67895 4.93666 9.68984 4.99167 9.68984C5.04667 9.68984 5.10113 9.67895 5.15191 9.65779C5.20268 9.63664 5.24876 9.60564 5.2875 9.56659L7.5 7.34576C8.16027 6.68547 8.53121 5.78994 8.53121 4.85617C8.53121 3.9224 8.16027 3.02687 7.5 2.36659ZM6.90417 6.74992L5 8.66242L3.09583 6.74992C2.71964 6.37339 2.46353 5.89377 2.35987 5.37171C2.25621 4.84964 2.30966 4.30857 2.51346 3.81687C2.71726 3.32518 3.06226 2.90494 3.50485 2.60929C3.94743 2.31363 4.46774 2.15583 5 2.15583C5.53226 2.15583 6.05256 2.31363 6.49515 2.60929C6.93774 2.90494 7.28274 3.32518 7.48654 3.81687C7.69034 4.30857 7.74379 4.84964 7.64013 5.37171C7.53647 5.89377 7.28036 6.37339 6.90417 6.74992ZM3.75 3.58742C3.41363 3.92483 3.22475 4.38182 3.22475 4.85826C3.22475 5.33469 3.41363 5.79168 3.75 6.12909C3.9999 6.37942 4.31816 6.55037 4.66485 6.62051C5.01155 6.69064 5.37123 6.65683 5.69878 6.52332C6.02633 6.38981 6.30716 6.16254 6.50603 5.87003C6.70491 5.57751 6.81297 5.23278 6.81667 4.87909C6.81854 4.64292 6.77305 4.40878 6.68288 4.1905C6.5927 3.97222 6.45968 3.77424 6.29167 3.60826C6.12653 3.43933 5.92962 3.30473 5.71226 3.2122C5.4949 3.11967 5.26139 3.07104 5.02517 3.0691C4.78894 3.06716 4.55467 3.11196 4.33582 3.20092C4.11698 3.28987 3.91788 3.42123 3.75 3.58742ZM5.70417 5.53742C5.54627 5.69773 5.33759 5.79821 5.1138 5.82169C4.89002 5.84517 4.66503 5.79019 4.47729 5.66614C4.28956 5.5421 4.15075 5.35669 4.08459 5.14162C4.01842 4.92656 4.02902 4.69519 4.11457 4.48707C4.20011 4.27895 4.35529 4.10701 4.55358 4.00065C4.75186 3.89428 4.98094 3.86009 5.20164 3.90393C5.42234 3.94777 5.62096 4.0669 5.76355 4.24098C5.90613 4.41505 5.98382 4.63324 5.98333 4.85826C5.97727 5.11545 5.86937 5.35972 5.68333 5.53742H5.70417Z"/>
</svg>
