<svg viewBox="0 0 40 40" fill="black" xmlns="http://www.w3.org/2000/svg">
<path fill-rule="evenodd" clip-rule="evenodd" d="M20 0C24.6413 0 29.0925 1.88072 32.3744 5.22844C35.6563 8.57615 37.5 13.1166 37.5 17.851C37.5 23.9481 34.2411 28.9384 30.8072 32.5186C29.0916 34.2879 27.2196 35.8921 25.215 37.3106C24.1248 37.9868 21.5556 39.4715 20 40C20 40 16.2919 38.3054 14.5003 37.055C12.7086 35.8045 11.0301 34.411 9.19278 32.5186C5.75889 28.9365 2.5 23.9481 2.5 17.851C2.5 13.1166 4.34374 8.57615 7.62563 5.22844C10.9075 1.88072 15.3587 0 20 0ZM10.3755 8.03345C12.9281 5.42967 16.3901 3.96689 20 3.96689C23.6099 3.96689 27.0719 5.42967 29.6245 8.03345C32.1771 10.6372 33.6111 14.1687 33.6111 17.851C33.6111 22.4566 31.1378 26.5008 28.0286 29.7437C26.6917 31.1242 25.2468 32.3912 23.7081 33.5321L22.8175 34.1787C22.3845 34.4842 21.9781 34.7599 21.5983 35.0058L20.8847 35.462L20 35.9955L19.4381 35.6603L18.7711 35.2458L18.0128 34.7499C17.747 34.5741 17.4703 34.3837 17.1825 34.1787L16.2919 33.5321C14.7532 32.3912 13.3083 31.1242 11.9714 29.7437C8.86222 26.4988 6.38889 22.4566 6.38889 17.851C6.38889 14.1687 7.82291 10.6372 10.3755 8.03345Z"/>
<path fill-rule="evenodd" clip-rule="evenodd" d="M15.1079 12.9458C16.395 11.6328 18.1535 10.884 20 10.884C21.8465 10.884 23.605 11.6328 24.8921 12.9458C26.1773 14.2567 26.8889 16.0222 26.8889 17.8509C26.8889 19.6796 26.1773 21.4452 24.8921 22.7561C23.605 24.069 21.8465 24.8178 20 24.8178C18.1535 24.8178 16.395 24.069 15.1079 22.7561C13.8227 21.4452 13.1111 19.6796 13.1111 17.8509C13.1111 16.0222 13.8227 14.2567 15.1079 12.9458Z"/>
<path fill-rule="evenodd" clip-rule="evenodd" d="M30.8072 32.5186C34.2411 28.9384 37.5 23.9481 37.5 17.851C37.5 13.1166 35.6563 8.57615 32.3744 5.22844C29.0925 1.88072 24.6413 0 20 0C15.3587 0 10.9075 1.88072 7.62563 5.22844C4.34374 8.57615 2.5 13.1166 2.5 17.851C2.5 23.9481 5.75889 28.9365 9.19278 32.5186C11.0301 34.411 12.7086 35.8045 14.5003 37.055C16.2919 38.3054 20 40 20 40C21.5556 39.4715 24.1248 37.9868 25.215 37.3106C27.2196 35.8921 29.0916 34.2879 30.8072 32.5186ZM11.9714 29.7437C13.3083 31.1242 14.7532 32.3912 16.2919 33.5321L17.1825 34.1787C17.4703 34.3837 17.747 34.5741 18.0128 34.7499L18.7711 35.2458L19.4381 35.6603L20 35.9955L20.8847 35.462L21.5983 35.0058C21.9781 34.7599 22.3845 34.4842 22.8175 34.1787L23.7081 33.5321C25.2468 32.3912 26.6917 31.1242 28.0286 29.7437C31.1378 26.5008 33.6111 22.4566 33.6111 17.851C33.6111 14.1687 32.1771 10.6372 29.6245 8.03345C27.0719 5.42967 23.6099 3.96689 20 3.96689C16.3901 3.96689 12.9281 5.42967 10.3755 8.03345C7.82291 10.6372 6.38889 14.1687 6.38889 17.851C6.38889 22.4566 8.86222 26.4988 11.9714 29.7437ZM20 10.884C18.1535 10.884 16.395 11.6328 15.1079 12.9458C13.8227 14.2567 13.1111 16.0222 13.1111 17.8509C13.1111 19.6796 13.8227 21.4452 15.1079 22.7561C16.395 24.069 18.1535 24.8178 20 24.8178C21.8465 24.8178 23.605 24.069 24.8921 22.7561C26.1773 21.4452 26.8889 19.6796 26.8889 17.8509C26.8889 16.0222 26.1773 14.2567 24.8921 12.9458C23.605 11.6328 21.8465 10.884 20 10.884Z"/>
</svg>
