<svg width="24" height="24" viewBox="0 0 24 24" fill="black" xmlns="http://www.w3.org/2000/svg">
<path d="M19 2C19.7957 2 20.5585 2.3163 21.1211 2.87891C21.6837 3.44152 22 4.20435 22 5V18C22 18.6599 21.8104 19.6276 21.2119 20.459C20.5765 21.3415 19.5259 22 18 22H6C5.34008 22 4.37243 21.8104 3.54102 21.2119C2.65852 20.5765 2 19.5259 2 18V15H16V18C16 18.8741 16.3415 19.3243 16.709 19.5889C17.1275 19.8902 17.66 20 18 20C18.8741 20 19.3243 19.6585 19.5889 19.291C19.8902 18.8725 20 18.34 20 18V5C20 4.73478 19.8946 4.48051 19.707 4.29297C19.5195 4.10543 19.2652 4 19 4H7C6.73478 4 6.4805 4.10543 6.29297 4.29297C6.10543 4.4805 6 4.73478 6 5V13C6 13.5523 5.55228 14 5 14C4.44772 14 4 13.5523 4 13V5C4 4.20435 4.3163 3.44152 4.87891 2.87891C5.44152 2.3163 6.20435 2 7 2H19Z"/>
</svg>
